HIERARCHY
ROOT Hips
{
	OFFSET 0.00000 0.00000 0.00000
	CHANNELS 6 Xposition Yposition Zposition Zrotation Yrotation Xrotation 
	JOINT LHipJoint
	{
		OFFSET 0 0 0
		CHANNELS 3 Zrotation Yrotation Xrotation
		JOINT LeftHip
		{
			OFFSET 1.57338 -1.94743 0.52196
			CHANNELS 3 Zrotation Yrotation Xrotation
			JOINT LeftKnee
			{
				OFFSET 2.60333 -7.15259 0.00000
				CHANNELS 3 Zrotation Yrotation Xrotation
				JOINT LeftAnkle
				{
					OFFSET 2.77855 -7.63400 0.00000
					CHANNELS 3 Zrotation Yrotation Xrotation
					JOINT LeftToe
					{
						OFFSET 0.19847 -0.54529 2.28466
						CHANNELS 3 Zrotation Yrotation Xrotation
						End Site
						{
							OFFSET 0.00000 -0.00000 1.17993
						}
					}
				}
			}
		}
	}
	JOINT RHipJoint
	{
		OFFSET 0 0 0
		CHANNELS 3 Zrotation Yrotation Xrotation
		JOINT RightHip
		{
			OFFSET -1.61527 -1.94743 0.52196
			CHANNELS 3 Zrotation Yrotation Xrotation
			JOINT RightKnee
			{
				OFFSET -2.53829 -6.97390 0.00000
				CHANNELS 3 Zrotation Yrotation Xrotation
				JOINT RightAnkle
				{
					OFFSET -2.80762 -7.71387 0.00000
					CHANNELS 3 Zrotation Yrotation Xrotation
					JOINT RightToe
					{
						OFFSET -0.30536 -0.83898 2.28801
						CHANNELS 3 Zrotation Yrotation Xrotation
						End Site
						{
							OFFSET -0.00000 -0.00000 1.21323
						}
					}
				}
			}
		}
	}
	JOINT lowerback
	{
		OFFSET 0 0 0
		CHANNELS 3 Zrotation Yrotation Xrotation
		JOINT Chest
		{
			OFFSET -0.04381 1.99497 -0.19778
			CHANNELS 3 Zrotation Yrotation Xrotation
			JOINT Chest2
			{
				OFFSET -0.01959 2.01295 -0.04372
				CHANNELS 3 Zrotation Yrotation Xrotation
				JOINT lowerneck
				{
					OFFSET 0 0 0
					CHANNELS 3 Zrotation Yrotation Xrotation
					JOINT Neck
					{
						OFFSET -0.05459 1.76913 0.09708
						CHANNELS 3 Zrotation Yrotation Xrotation
						JOINT Head
						{
							OFFSET 0.09461 1.77368 -0.11172
							CHANNELS 3 Zrotation Yrotation Xrotation
							End Site
							{
								OFFSET 0.03812 1.78157 -0.04834
							}
						}
					}
				}
				JOINT LeftCollar
				{
					OFFSET 0 0 0
					CHANNELS 3 Zrotation Yrotation Xrotation
					JOINT LeftShoulder
					{
						OFFSET 3.50922 1.24034 -0.28866
CHANNELS 3 Zrotation Xrotation Yrotation
						JOINT LeftElbow
						{
OFFSET 0 -5.401880 0.000000
CHANNELS 3 Zrotation Xrotation Yrotation
							JOINT LeftWrist
							{
OFFSET 0 -3.685590 0.000000
CHANNELS 3 Zrotation Xrotation Yrotation
								JOINT lhand
								{
									OFFSET 0 0 0
CHANNELS 3 Zrotation Xrotation Yrotation
									JOINT LFingers
									{
OFFSET 0 -0.617530 0.000000
CHANNELS 3 Zrotation Xrotation Yrotation
										End Site
										{
OFFSET 0 -0.497870 0.000000
										}
									}
								}
								JOINT LThumb
								{
OFFSET 0 0.000000 0.000000
CHANNELS 3 Zrotation Xrotation Yrotation
									End Site
									{
OFFSET 0 -0.505470 0.505470
									}
								}
							}
						}
					}
				}
				JOINT RightCollar
				{
					OFFSET 0 0 0
					CHANNELS 3 Zrotation Yrotation Xrotation
					JOINT RightShoulder
					{
						OFFSET -2.95373 1.39649 -0.27346
CHANNELS 3 Zrotation Xrotation Yrotation
						JOINT RightElbow
						{
OFFSET 0 -6.106700 -0.000000
CHANNELS 3 Zrotation Xrotation Yrotation
							JOINT RightWrist
							{
OFFSET 0 -3.630520 0.000000
CHANNELS 3 Zrotation Xrotation Yrotation
								JOINT rhand
								{
									OFFSET 0 0 0
CHANNELS 3 Zrotation Xrotation Yrotation
									JOINT RFingers
									{
OFFSET 0 -0.583850 0.000000
CHANNELS 3 Zrotation Xrotation Yrotation
										End Site
										{
OFFSET 0 -0.470710 0.000000
										}
									}
								}
								JOINT RThumb
								{
OFFSET 0 0.000000 0.000000
CHANNELS 3 Zrotation Xrotation Yrotation
									End Site
									{
OFFSET 0 -0.477900 0.477900
									}
								}
							}
						}
					}
				}
			}
		}
	}
}
MOTION
Frames: 4
Frame Time: 0.008333333333333333
3.873300 18.676100 0.690800 14.182500 -76.320600 -12.111800 0.000000 0.000000 0.000000 -25.387000 -9.060400 -2.773900 1.292300 7.202700 20.317300 0.638000 8.982400 -20.923700 0.021100 0.937800 2.577700 0.000000 0.000000 0.000000 16.709500 23.708900 -1.013900 -2.015200 -8.897700 25.476000 -1.044200 -5.999400 -22.355800 -0.013700 0.755400 -2.076000 -3.512400 3.116600 9.568500 -1.820400 3.628400 0.431200 -0.427000 1.832800 -5.014200 -4.825700 0.063800 -7.276300 5.292000 0.404600 -3.229900 2.524800 0.263500 0.211600 0.000000 0.000000 0.000000 12.489600 0.121600 -9.643200 13.120300 -21.463300 2.497100 20.127600 15.491900 -20.450900 0.000000 0.000000 0.000000 -7.125000 0.000000 0.000000 -8.503600 51.445700 1.358300 0.000000 0.000000 0.000000 -14.294300 6.355000 25.247300 -19.130500 -29.580500 -5.095100 -32.508200 7.027800 -10.374300 0.000000 0.000000 0.000000 7.125000 0.000000 -0.000000 -3.832400 17.748300 -2.487300
3.842420 18.666106 0.744055 16.163208 -76.431853 -13.808038 0.000000 0.000000 0.000000 -25.925110 -8.452552 -3.257812 1.326381 7.293450 20.587752 0.674388 8.584807 -20.926399 0.016305 0.825621 2.269233 0.000000 0.000000 0.000000 15.942137 23.594360 -1.375735 -2.049896 -8.969291 25.699373 -1.074177 -5.565924 -22.334901 -0.019992 0.912898 -2.509244 -4.072451 3.067142 9.617378 -1.972753 3.486043 0.454112 -0.255798 1.771163 -5.039341 -5.048546 -0.163871 -6.520905 5.112555 0.124265 -6.628359 2.500471 0.091995 -0.982646 0.000000 0.000000 0.000000 16.455462 -0.971886 -9.725087 13.395318 -21.863680 2.598669 19.470024 13.911454 -20.584453 0.000000 0.000000 0.000000 -7.125000 0.000000 0.000000 -9.197902 51.470661 1.476338 0.000000 0.000000 0.000000 -17.588377 5.026537 25.773609 -19.958797 -30.592613 -5.510296 -32.445618 7.127787 -10.059802 0.000000 0.000000 0.000000 7.125000 0.000000 0.000000 -3.821938 18.123678 -2.448929
3.809412 18.654221 0.773060 14.642001 -76.405122 -12.309722 0.000000 0.000000 0.000000 -25.554719 -8.092875 -3.405705 1.348292 7.350980 20.759540 0.699710 8.228523 -20.867366 0.008325 0.587938 1.615728 0.000000 0.000000 0.000000 16.476161 24.130859 -1.099113 -2.096039 -9.063375 25.993908 -1.098715 -6.093442 -22.884105 -0.021904 0.955484 -2.626331 -4.047792 2.972644 10.034880 -1.907696 3.340417 0.415741 -0.204905 1.701670 -5.311794 -5.373482 -0.585146 -6.242073 5.134920 -0.427245 -9.603358 2.593894 -0.205154 -1.967607 0.000000 0.000000 0.000000 21.640248 -2.963874 -9.786335 13.215203 -21.601750 2.531938 18.907025 12.733029 -20.687011 0.000000 0.000000 0.000000 -7.125000 0.000000 0.000000 -9.788244 51.479713 1.574770 0.000000 0.000000 0.000000 -21.651231 3.338744 25.705757 -20.905979 -31.718435 -6.000370 -32.108033 4.378652 -11.504762 0.000000 0.000000 0.000000 7.125000 0.000000 0.000000 -3.433323 16.483998 -2.322240
3.745109 18.640621 0.833735 13.783305 -76.380899 -11.093139 0.000000 0.000000 0.000000 -25.436304 -7.846349 -3.664073 1.344473 7.341131 20.730192 0.726809 7.980987 -20.921882 0.004822 0.448745 1.232923 0.000000 0.000000 0.000000 16.379447 23.974945 -1.637197 -2.172327 -9.216255 26.474144 -1.169420 -5.712433 -23.232904 -0.023085 0.981874 -2.698905 -4.197014 2.776519 9.510809 -1.818230 3.099134 0.273724 0.028865 1.590590 -5.172858 -6.563768 -1.153927 -5.888223 5.761012 -1.134379 -12.416154 3.086157 -0.553875 -2.943015 0.000000 0.000000 0.000000 27.344832 -5.594093 -6.903568 12.844340 -21.058793 2.397095 17.529874 12.517710 -19.807366 0.000000 0.000000 0.000000 -7.125000 0.000000 0.000000 -10.823329 50.358936 1.444250 0.000000 0.000000 0.000000 -27.140682 1.189655 26.276310 -22.144673 -33.140201 -6.664777 -32.214779 4.781224 -8.187526 0.000000 0.000000 0.000000 7.125000 0.000000 0.000000 -3.844962 20.338846 -2.273761
